<?xml version="1.0" encoding="UTF-8"?>
<svg xmlns="http://www.w3.org/2000/svg" xmlns:xlink="http://www.w3.org/1999/xlink" width="267pt" height="161pt" viewBox="0 0 267 161" version="1.1">
<g id="surface1">
<path style=" stroke:none;fill-rule:nonzero;fill:rgb(0%,0%,0%);fill-opacity:1;" d="M 15.144531 67.863281 C 15.113281 90.539062 14.925781 95.425781 13.972656 97.554688 C 13.183594 99.394531 10.847656 101.96875 8.980469 103.046875 C 8.25 103.492188 6.355469 104.191406 4.839844 104.636719 L 2.058594 105.429688 L 4.585938 105.304688 C 9.042969 105.015625 12.425781 103.460938 15.304688 100.316406 C 17.390625 98.0625 18.8125 95.203125 19.257812 92.410156 C 19.476562 91.105469 19.605469 82.597656 19.605469 69.609375 L 19.605469 48.90625 L 15.175781 48.90625 Z M 15.144531 67.863281 "/>
<path style=" stroke:none;fill-rule:nonzero;fill:rgb(0%,0%,0%);fill-opacity:1;" d="M 23.714844 77.167969 L 23.714844 105.429688 L 35.824219 105.367188 C 43.949219 105.335938 46.824219 105.238281 44.582031 105.113281 C 42.746094 104.988281 38.386719 104.859375 34.875 104.828125 L 28.457031 104.796875 L 28.457031 49.921875 L 38.199219 49.667969 L 47.902344 49.378906 L 42.050781 49.1875 C 38.828125 49.0625 33.390625 48.96875 29.972656 48.9375 L 23.714844 48.90625 Z M 23.714844 77.167969 "/>
<path style=" stroke:none;fill-rule:nonzero;fill:rgb(0%,0%,0%);fill-opacity:1;" d="M 53.214844 49.09375 C 52.992188 49.1875 52.804688 49.476562 52.804688 49.730469 C 52.804688 50.332031 71.140625 102.066406 72.121094 104.253906 C 73.007812 106.191406 72.878906 106.480469 79.238281 88.757812 C 80.722656 84.566406 82.109375 80.753906 82.269531 80.246094 C 82.714844 79.042969 83.027344 79.167969 83.566406 80.722656 C 83.851562 81.484375 85.464844 86.089844 87.203125 90.980469 C 92.609375 106.160156 92.484375 105.941406 93.273438 104.507812 C 94.097656 102.949219 112.5625 50.808594 112.5625 50.015625 C 112.5625 49.03125 112.054688 49.601562 111.394531 51.347656 C 111.011719 52.367188 107.976562 60.75 104.65625 70.023438 C 101.339844 79.261719 97.730469 89.265625 96.691406 92.1875 C 95.488281 95.460938 94.664062 97.363281 94.503906 97.109375 C 94.128906 96.441406 92.011719 90.695312 88.5 80.851562 L 85.242188 71.640625 L 86.699219 67.511719 C 87.488281 65.226562 89.226562 60.335938 90.558594 56.652344 C 91.878906 52.96875 92.957031 49.699219 92.957031 49.351562 C 92.957031 47.917969 91.949219 50.015625 89.984375 55.570312 C 86.222656 66.113281 84.925781 69.546875 84.707031 69.546875 C 84.453125 69.546875 83.820312 67.800781 80.277344 57.734375 C 77.019531 48.523438 77.496094 49.316406 75.285156 49.0625 C 73.167969 48.8125 72.722656 48.96875 72.722656 49.886719 C 72.722656 50.238281 74.839844 56.492188 77.433594 63.796875 L 82.175781 77.101562 L 78.886719 86.40625 C 77.085938 91.550781 75.472656 96.15625 75.253906 96.699219 L 74.90625 97.617188 L 74.269531 96.25 C 73.515625 94.535156 69.777344 84.15625 62.761719 64.304688 C 59.855469 56.082031 57.449219 49.351562 57.417969 49.351562 C 57.261719 49.160156 53.53125 48.96875 53.214844 49.09375 Z M 53.214844 49.09375 "/>
<path style=" stroke:none;fill-rule:nonzero;fill:rgb(0%,0%,0%);fill-opacity:1;" d="M 120.148438 49.1875 L 117.464844 49.378906 L 117.464844 105.269531 L 129.792969 105.335938 C 136.589844 105.335938 141.777344 105.238281 141.332031 105.113281 C 140.890625 104.988281 136.464844 104.859375 131.46875 104.828125 L 122.363281 104.796875 L 122.363281 49.542969 L 131.910156 49.542969 C 137.160156 49.542969 141.367188 49.476562 141.300781 49.410156 C 141.050781 49.1875 122.835938 49 120.148438 49.1875 Z M 120.148438 49.1875 "/>
<path style=" stroke:none;fill-rule:nonzero;fill:rgb(0%,0%,0%);fill-opacity:1;" d="M 146.394531 77.167969 L 146.394531 105.429688 L 158.503906 105.367188 C 166.628906 105.335938 169.503906 105.238281 167.261719 105.113281 C 165.425781 104.988281 161.066406 104.859375 157.554688 104.828125 L 151.136719 104.796875 L 151.136719 49.316406 L 149.488281 49.09375 C 148.574219 49 147.5 48.90625 147.121094 48.90625 L 146.394531 48.90625 Z M 146.394531 77.167969 "/>
<path style=" stroke:none;fill-rule:nonzero;fill:rgb(0%,0%,0%);fill-opacity:1;" d="M 239.035156 77.167969 L 239.035156 105.429688 L 251.300781 105.367188 C 259.589844 105.335938 262.433594 105.238281 260.058594 105.113281 C 258.164062 104.988281 253.707031 104.859375 250.195312 104.828125 L 243.777344 104.796875 L 243.777344 49.921875 L 253.519531 49.667969 L 263.222656 49.378906 L 257.371094 49.1875 C 254.148438 49.0625 248.710938 48.96875 245.296875 48.9375 L 239.035156 48.90625 Z M 239.035156 77.167969 "/>
<path style=" stroke:none;fill-rule:nonzero;fill:rgb(0%,0%,0%);fill-opacity:1;" d="M 214.375 49.859375 C 213.800781 50.9375 211.972656 55.828125 208.839844 64.59375 C 207.226562 69.132812 205.679688 73.390625 205.425781 73.992188 L 204.917969 75.101562 L 204.160156 73.355469 C 203.746094 72.402344 201.886719 67.449219 200.046875 62.402344 C 195.625 50.175781 195.371094 49.542969 194.957031 49.542969 C 194.515625 49.542969 194.042969 50.839844 187.121094 70.023438 C 179.308594 91.710938 175.132812 103.84375 175.261719 104.445312 C 175.355469 104.765625 175.574219 104.507812 175.957031 103.683594 C 176.464844 102.539062 184.808594 79.390625 188.917969 67.800781 C 191.480469 60.527344 192.558594 57.667969 192.871094 57.382812 C 193 57.226562 193.691406 58.621094 194.421875 60.492188 C 196.445312 65.765625 201.15625 79.007812 201.753906 81.199219 L 202.292969 83.167969 L 199.640625 90.566406 C 196.097656 100.316406 194.644531 104.765625 194.898438 105.015625 C 194.988281 105.113281 195.183594 105.144531 195.277344 105.015625 C 195.402344 104.921875 196.792969 101.207031 198.40625 96.792969 C 202.453125 85.679688 202.671875 85.105469 202.988281 85.105469 C 203.117188 85.105469 204.066406 87.425781 205.074219 90.25 C 206.089844 93.109375 207.699219 97.648438 208.652344 100.347656 L 210.421875 105.269531 L 212.574219 105.367188 C 214.152344 105.429688 214.753906 105.335938 214.878906 105.015625 C 214.972656 104.765625 213.582031 100.441406 211.8125 95.394531 C 210.074219 90.347656 207.988281 84.4375 207.226562 82.246094 C 206.464844 80.058594 205.832031 77.894531 205.832031 77.417969 C 205.832031 76.53125 209.535156 65.382812 211.621094 60.082031 C 212.792969 57.03125 212.917969 56.84375 213.265625 57.542969 C 213.453125 57.921875 217.40625 68.878906 221.992188 81.835938 L 230.339844 105.429688 L 234.988281 105.429688 L 234.769531 104.414062 C 234.355469 102.574219 217.1875 54.273438 215.667969 50.683594 C 215.320312 49.886719 214.941406 49.222656 214.878906 49.222656 C 214.785156 49.222656 214.5625 49.507812 214.375 49.859375 Z M 214.375 49.859375 "/>
</g>
</svg>
